<svg width="1073" height="910" viewBox="0 0 1073 910" fill="none" xmlns="http://www.w3.org/2000/svg">
<g filter="url(#filter0_d_29_2)">
<path fill-rule="evenodd" clip-rule="evenodd" d="M882.997 323.773C945.298 429.97 932.693 579.012 839.638 678.233C752.841 770.782 603.929 752.859 473.923 759.957C362.009 766.068 234.932 786.814 164.026 715.121C94.8078 645.136 137.728 535.932 156.32 438.834C174.981 341.379 170.997 223.275 268.232 170.914C364.703 118.966 466.609 191.253 568.867 216.679C683.154 245.096 828.651 231.134 882.997 323.773Z" fill="white"/>
</g>
<g filter="url(#filter1_d_29_2)">
<path d="M764.449 430.005L749.515 439.811L905.048 677.21L919.982 667.405L764.449 430.005Z" fill="#A4885E"/>
<path d="M728.895 340.665L763.448 393.406C764.117 394.427 764.354 395.673 764.105 396.869C763.857 398.064 763.145 399.113 762.124 399.782C761.104 400.452 759.86 400.689 758.665 400.44C757.471 400.192 756.424 399.479 755.755 398.457L716.032 337.825C710.64 337.375 705.22 338.266 700.256 340.419L743.536 406.48C744.204 407.501 744.44 408.747 744.192 409.942C743.944 411.138 743.231 412.186 742.211 412.856C741.191 413.525 739.947 413.762 738.753 413.514C737.558 413.265 736.512 412.552 735.842 411.532L692.562 345.471C688.611 349.171 685.636 353.792 683.9 358.923L723.623 419.554C724.292 420.576 724.528 421.821 724.28 423.017C724.031 424.212 723.319 425.26 722.299 425.93C721.279 426.6 720.035 426.836 718.84 426.588C717.646 426.34 716.599 425.627 715.93 424.606L681.377 371.865C680.489 386.571 685.279 404 695.775 420.021C715.282 449.797 747.103 463.425 766.848 450.46C786.593 437.496 786.786 402.848 767.278 373.072C756.782 357.052 742.721 345.709 728.895 340.665Z" fill="#A4885E"/>
<path d="M831.409 397.528H813.549V681.433H831.409V397.528Z" fill="#A4885E"/>
<path d="M822.209 415.949C845.822 415.949 864.964 387.083 864.964 351.475C864.964 315.866 845.822 287 822.209 287C798.596 287 779.453 315.866 779.453 351.475C779.453 387.083 798.596 415.949 822.209 415.949Z" fill="#A4885E"/>
<path d="M822.209 404.524C841.637 404.524 857.387 380.773 857.387 351.475C857.387 322.177 841.637 298.426 822.209 298.426C802.78 298.426 787.03 322.177 787.03 351.475C787.03 380.773 802.78 404.524 822.209 404.524Z" fill="#8C744F"/>
<path d="M872 696C980.8 696 1069 690.934 1069 684.684C1069 678.435 980.8 673.369 872 673.369C763.2 673.369 675 678.435 675 684.684C675 690.934 763.2 696 872 696Z" fill="#3E3E3E"/>
<path d="M988.505 684.518C914.677 671.196 839.065 671.196 765.237 684.518C764.064 684.731 762.859 684.683 761.707 684.379C760.554 684.074 759.483 683.52 758.567 682.756C757.652 681.992 756.916 681.036 756.41 679.955C755.904 678.875 755.641 677.697 755.64 676.504V575.24H998.102V676.504C998.1 677.697 997.838 678.875 997.332 679.955C996.826 681.036 996.089 681.992 995.174 682.756C994.259 683.52 993.187 684.074 992.035 684.379C990.883 684.683 989.678 684.731 988.505 684.518Z" fill="#E9E9E9"/>
<path d="M975.912 500.471C970.314 500.466 964.754 501.397 959.462 503.227C951.743 486.467 939.41 472.259 923.909 462.271C908.408 452.282 890.383 446.927 871.948 446.834C853.514 446.74 835.435 451.913 819.834 461.744C804.233 471.576 791.757 485.658 783.87 502.338C776.104 500.157 767.927 499.877 760.03 501.52C752.133 503.164 744.745 506.683 738.491 511.782C732.236 516.881 727.297 523.41 724.09 530.82C720.882 538.229 719.501 546.301 720.061 554.357C720.621 562.412 723.107 570.215 727.31 577.108C731.512 584.001 737.307 589.781 744.208 593.963C751.108 598.145 758.911 600.605 766.96 601.137C775.008 601.669 783.067 600.256 790.456 597.019C799.338 610.567 811.469 621.673 825.741 629.32C840.013 636.967 855.972 640.912 872.159 640.796C888.346 640.679 904.247 636.504 918.407 628.652C932.568 620.8 944.538 609.522 953.224 595.846C960.01 599.276 967.483 601.122 975.084 601.247C982.685 601.372 990.215 599.771 997.109 596.566C1004 593.361 1010.08 588.634 1014.89 582.74C1019.7 576.847 1023.11 569.939 1024.88 562.536C1026.64 555.133 1026.7 547.427 1025.06 539.996C1023.42 532.565 1020.12 525.603 1015.41 519.63C1010.7 513.658 1004.7 508.832 997.857 505.514C991.016 502.196 983.514 500.471 975.912 500.471Z" fill="#E9E9E9"/>
<path d="M775.124 543.815H774.041C774.004 529.388 777.194 515.136 783.375 502.104L784.354 502.568C778.241 515.455 775.087 529.549 775.124 543.815Z" fill="#3F3D56"/>
<path d="M968.876 543.815H967.794C967.827 529.878 964.818 516.101 958.976 503.45L959.959 502.996C965.867 515.79 968.91 529.721 968.876 543.815Z" fill="#3F3D56"/>
<path d="M755.771 622.361L755.51 621.309C755.815 621.233 786.577 613.67 831.658 609.917C873.266 606.453 935.941 605.618 998.234 621.31L997.969 622.36C935.83 606.708 873.292 607.54 831.77 610.995C786.77 614.74 756.075 622.285 755.771 622.361Z" fill="#3F3D56"/>
<path d="M755.771 636.99L755.51 635.938C755.815 635.862 786.577 628.299 831.658 624.546C873.266 621.082 935.941 620.247 998.234 635.938L997.969 636.989C935.83 621.337 873.292 622.169 831.77 625.624C786.77 629.368 756.075 636.914 755.771 636.99Z" fill="#3F3D56"/>
<path d="M755.771 651.618L755.51 650.566C755.815 650.491 786.577 642.927 831.658 639.174C873.266 635.711 935.941 634.875 998.234 650.567L997.969 651.618C935.83 635.965 873.292 636.798 831.77 640.253C786.77 643.997 756.075 651.543 755.771 651.618Z" fill="#3F3D56"/>
<path d="M954.949 572.073L941.836 567.61L954.425 503.282L945.77 502.495C937.33 508.977 926.092 511.518 911.674 509.584L934.754 544.504L922.986 552.821L885.443 507.74C883.751 505.708 882.824 503.146 882.824 500.501C882.824 498.048 883.621 495.662 885.094 493.702C886.567 491.743 888.637 490.316 890.991 489.637L931.082 478.076L978.029 483.328C985.127 494.16 985.405 501.694 974.6 503.868L954.949 572.073Z" fill="#414141"/>
<path d="M941.527 597.098C940.172 597.012 938.856 596.608 937.686 595.917C936.516 595.226 935.525 594.269 934.794 593.123C934.063 591.977 933.612 590.674 933.478 589.321C933.344 587.968 933.531 586.602 934.023 585.335L940.543 568.552C943.854 562.272 948.399 563.058 953.766 568.552L956.389 576.254C956.605 576.888 956.69 577.56 956.64 578.228C956.591 578.896 956.407 579.547 956.099 580.142L949.745 592.441C948.974 593.932 947.787 595.167 946.328 595.993C944.869 596.82 943.201 597.204 941.527 597.098Z" fill="black"/>
<path d="M924.58 575.121C923.224 575.035 921.908 574.63 920.738 573.94C919.568 573.249 918.577 572.292 917.846 571.146C917.115 570 916.664 568.697 916.53 567.344C916.396 565.991 916.583 564.625 917.075 563.358L923.595 546.575C926.906 540.295 931.451 541.081 936.818 546.575L939.441 554.277C939.657 554.911 939.742 555.583 939.693 556.251C939.643 556.919 939.459 557.57 939.151 558.165L932.797 570.464C932.026 571.955 930.839 573.189 929.38 574.016C927.921 574.843 926.253 575.227 924.58 575.121Z" fill="black"/>
<path d="M932.918 416.637C941.03 416.637 947.606 410.054 947.606 401.933C947.606 393.813 941.03 387.23 932.918 387.23C924.807 387.23 918.231 393.813 918.231 401.933C918.231 410.054 924.807 416.637 932.918 416.637Z" fill="#FFB9B9"/>
<path d="M955.736 422.676L935.541 433.178L931.345 414.274L945.245 405.609L955.736 422.676Z" fill="#FFB9B9"/>
<path d="M980.128 485.953C959.976 479.86 941.692 476.703 928.46 481.49C933.021 468.644 924.602 449.029 915.346 428.977C919.34 423.75 925.708 421.726 932.918 420.838C940.808 426.572 946.309 422.892 950.491 414.011C959.612 413.645 968.402 416.878 976.98 422.413C970.275 443.915 971.482 465.089 980.128 485.953Z" fill="#B35F5F"/>
<path d="M928.197 484.64C925.015 486.518 922.079 489.681 919.28 493.567C914.551 490.669 910.389 487.37 907.111 483.445C904.816 480.662 903.251 477.35 902.558 473.809C901.865 470.268 902.066 466.609 903.143 463.166L912.106 434.005C912.85 431.583 914.297 429.437 916.261 427.839L917.444 426.877L929.247 449.194L917.444 471.25C918.941 475.267 923.351 479.907 928.197 484.64Z" fill="#B35F5F"/>
<path d="M932.26 506.874C931.19 507.362 930.021 507.594 928.846 507.552C927.671 507.51 926.521 507.195 925.489 506.632C924.456 506.068 923.569 505.272 922.896 504.306C922.224 503.34 921.786 502.231 921.616 501.066L919.665 487.697L926.484 484.021L935.139 495.363C935.83 496.269 936.309 497.32 936.539 498.436C936.769 499.553 936.745 500.707 936.468 501.813C936.192 502.918 935.67 503.948 934.941 504.824C934.212 505.7 933.296 506.401 932.26 506.874Z" fill="#FFB9B9"/>
<path d="M947.737 401.29L945.229 401.364L938.273 391.5C929.359 392.422 922.056 396.299 915.875 402.237L915.248 398.055C914.651 394.066 915.602 390 917.908 386.692C920.214 383.385 923.698 381.088 927.643 380.273H927.643C929.716 379.846 931.853 379.84 933.928 380.258C936.003 380.675 937.972 381.507 939.718 382.703C941.465 383.9 942.952 385.436 944.093 387.221C945.233 389.006 946.002 391.002 946.354 393.091L947.737 401.29Z" fill="#231500"/>
<path d="M919.533 493.573C919.046 492.502 918.813 491.331 918.855 490.155C918.897 488.978 919.212 487.828 919.775 486.794C920.337 485.76 921.133 484.872 922.098 484.199C923.063 483.526 924.171 483.087 925.334 482.917L938.688 480.964L942.36 487.791L931.031 496.455C930.126 497.147 929.077 497.626 927.962 497.856C926.846 498.087 925.693 498.063 924.589 497.786C923.484 497.509 922.456 496.986 921.581 496.257C920.705 495.527 920.006 494.61 919.533 493.573Z" fill="#FFB9B9"/>
<path d="M982.672 481.412C969.967 482.4 956.095 486.366 941.573 491.992C941.393 487.676 939.83 483.534 937.115 480.177C950.304 476.699 962.272 472.618 969.637 466.261L965.178 432.653L974.882 421.625L976.556 422.5C977.946 423.223 979.169 424.23 980.145 425.457C981.121 426.684 981.829 428.103 982.222 429.621C986.319 445.576 988.139 460.864 986.888 475.25C987.05 476.614 986.711 477.991 985.936 479.124C985.161 480.257 984.001 481.07 982.672 481.412Z" fill="#B35F5F"/>
<path d="M726.894 681.494C715.078 688.893 703.263 688.889 691.447 681.485C691.073 681.254 690.769 680.925 690.568 680.534C690.368 680.143 690.278 679.704 690.309 679.265L693.996 631.282H723.817L728.029 679.248C728.066 679.691 727.979 680.135 727.779 680.532C727.578 680.928 727.272 681.261 726.894 681.494Z" fill="#DCD9FF"/>
<path d="M708.769 637.253C717.08 637.253 723.817 634.823 723.817 631.825C723.817 628.827 717.08 626.397 708.769 626.397C700.458 626.397 693.721 628.827 693.721 631.825C693.721 634.823 700.458 637.253 708.769 637.253Z" fill="#DCD9FF"/>
<path d="M720.564 629.993C712.723 635.515 705.132 635.515 697.792 629.993V621.308H720.564V629.993Z" fill="#FFC163"/>
<path d="M709.178 625.651C715.466 625.651 720.564 623.706 720.564 621.308C720.564 618.91 715.466 616.966 709.178 616.966C702.89 616.966 697.792 618.91 697.792 621.308C697.792 623.706 702.89 625.651 709.178 625.651Z" fill="#FFD392"/>
<path d="M709.72 621.086C710.319 621.086 710.804 620.843 710.804 620.543C710.804 620.243 710.319 620 709.72 620C709.121 620 708.636 620.243 708.636 620.543C708.636 620.843 709.121 621.086 709.72 621.086Z" fill="#5B5B5B"/>
<path d="M714.841 621.308C715.439 621.308 715.925 621.065 715.925 620.765C715.925 620.466 715.439 620.223 714.841 620.223C714.242 620.223 713.756 620.466 713.756 620.765C713.756 621.065 714.242 621.308 714.841 621.308Z" fill="#5B5B5B"/>
<path d="M712.28 622.59C712.879 622.59 713.365 622.347 713.365 622.047C713.365 621.747 712.879 621.504 712.28 621.504C711.681 621.504 711.196 621.747 711.196 622.047C711.196 622.347 711.681 622.59 712.28 622.59Z" fill="#5B5B5B"/>
<path d="M702.039 622.367C702.638 622.367 703.124 622.124 703.124 621.824C703.124 621.525 702.638 621.282 702.039 621.282C701.441 621.282 700.955 621.525 700.955 621.824C700.955 622.124 701.441 622.367 702.039 622.367Z" fill="#5B5B5B"/>
<path d="M704.6 621.086C705.199 621.086 705.684 620.843 705.684 620.543C705.684 620.243 705.199 620 704.6 620C704.001 620 703.515 620.243 703.515 620.543C703.515 620.843 704.001 621.086 704.6 621.086Z" fill="#5B5B5B"/>
<path d="M707.16 623.008C707.759 623.008 708.244 622.765 708.244 622.465C708.244 622.165 707.759 621.922 707.16 621.922C706.561 621.922 706.075 622.165 706.075 622.465C706.075 622.765 706.561 623.008 707.16 623.008Z" fill="#5B5B5B"/>
<path d="M1054.33 681.494C1042.51 688.893 1030.69 688.889 1018.88 681.485C1018.5 681.254 1018.2 680.925 1018 680.534C1017.8 680.143 1017.71 679.704 1017.74 679.265L1021.43 631.282H1051.25L1055.46 679.248C1055.5 679.691 1055.41 680.135 1055.21 680.532C1055.01 680.928 1054.7 681.261 1054.33 681.494Z" fill="#DCD9FF"/>
<path d="M1036.2 637.253C1044.51 637.253 1051.25 634.823 1051.25 631.825C1051.25 628.827 1044.51 626.397 1036.2 626.397C1027.89 626.397 1021.15 628.827 1021.15 631.825C1021.15 634.823 1027.89 637.253 1036.2 637.253Z" fill="#DCD9FF"/>
<path d="M1048 629.993C1040.15 635.515 1032.56 635.515 1025.22 629.993V621.308H1048V629.993Z" fill="#FFC163"/>
<path d="M1036.61 625.651C1042.9 625.651 1048 623.706 1048 621.308C1048 618.91 1042.9 616.966 1036.61 616.966C1030.32 616.966 1025.22 618.91 1025.22 621.308C1025.22 623.706 1030.32 625.651 1036.61 625.651Z" fill="#FFD392"/>
<path d="M1037.15 621.308C1037.75 621.308 1038.24 621.065 1038.24 620.765C1038.24 620.466 1037.75 620.223 1037.15 620.223C1036.55 620.223 1036.07 620.466 1036.07 620.765C1036.07 621.065 1036.55 621.308 1037.15 621.308Z" fill="#5B5B5B"/>
<path d="M1042.27 621.308C1042.87 621.308 1043.36 621.065 1043.36 620.765C1043.36 620.466 1042.87 620.223 1042.27 620.223C1041.67 620.223 1041.19 620.466 1041.19 620.765C1041.19 621.065 1041.67 621.308 1042.27 621.308Z" fill="#5B5B5B"/>
<path d="M1039.71 622.59C1040.31 622.59 1040.8 622.347 1040.8 622.047C1040.8 621.747 1040.31 621.504 1039.71 621.504C1039.11 621.504 1038.63 621.747 1038.63 622.047C1038.63 622.347 1039.11 622.59 1039.71 622.59Z" fill="#5B5B5B"/>
<path d="M1029.47 622.59C1030.07 622.59 1030.56 622.347 1030.56 622.047C1030.56 621.747 1030.07 621.504 1029.47 621.504C1028.87 621.504 1028.39 621.747 1028.39 622.047C1028.39 622.347 1028.87 622.59 1029.47 622.59Z" fill="#5B5B5B"/>
<path d="M1032.03 621.308C1032.63 621.308 1033.12 621.065 1033.12 620.765C1033.12 620.466 1032.63 620.223 1032.03 620.223C1031.43 620.223 1030.95 620.466 1030.95 620.765C1030.95 621.065 1031.43 621.308 1032.03 621.308Z" fill="#5B5B5B"/>
<path d="M1034.59 623.23C1035.19 623.23 1035.68 622.987 1035.68 622.688C1035.68 622.388 1035.19 622.145 1034.59 622.145C1033.99 622.145 1033.51 622.388 1033.51 622.688C1033.51 622.987 1033.99 623.23 1034.59 623.23Z" fill="#5B5B5B"/>
</g>
<defs>
<filter id="filter0_d_29_2" x="115.033" y="135.571" width="835.437" height="654.904" filterUnits="userSpaceOnUse" color-interpolation-filters="sRGB">
<feFlood flood-opacity="0" result="BackgroundImageFix"/>
<feColorMatrix in="SourceAlpha" type="matrix" values="0 0 0 0 0 0 0 0 0 0 0 0 0 0 0 0 0 0 127 0" result="hardAlpha"/>
<feOffset dx="9" dy="3"/>
<feGaussianBlur stdDeviation="10"/>
<feComposite in2="hardAlpha" operator="out"/>
<feColorMatrix type="matrix" values="0 0 0 0 0 0 0 0 0 0 0 0 0 0 0 0 0 0 0.25 0"/>
<feBlend mode="normal" in2="BackgroundImageFix" result="effect1_dropShadow_29_2"/>
<feBlend mode="normal" in="SourceGraphic" in2="effect1_dropShadow_29_2" result="shape"/>
</filter>
<filter id="filter1_d_29_2" x="671" y="283" width="402" height="417" filterUnits="userSpaceOnUse" color-interpolation-filters="sRGB">
<feFlood flood-opacity="0" result="BackgroundImageFix"/>
<feColorMatrix in="SourceAlpha" type="matrix" values="0 0 0 0 0 0 0 0 0 0 0 0 0 0 0 0 0 0 127 0" result="hardAlpha"/>
<feOffset/>
<feGaussianBlur stdDeviation="2"/>
<feComposite in2="hardAlpha" operator="out"/>
<feColorMatrix type="matrix" values="0 0 0 0 0 0 0 0 0 0 0 0 0 0 0 0 0 0 0.25 0"/>
<feBlend mode="normal" in2="BackgroundImageFix" result="effect1_dropShadow_29_2"/>
<feBlend mode="normal" in="SourceGraphic" in2="effect1_dropShadow_29_2" result="shape"/>
</filter>
</defs>
</svg>
